<svg xmlns="http://www.w3.org/2000/svg" viewBox="0 0 180.58 73.37"><defs><style>.cls-1{fill:#fff;}</style></defs><title>asmt</title><g id="Layer_2" data-name="Layer 2"><g id="Layer_1-2" data-name="Layer 1"><path class="cls-1" d="M9.53,8.77h-7L1,12.18H0L5.59.09h.88L12,12.18h-.95ZM9.2,8,6,1.05,2.86,8Z"/><path class="cls-1" d="M15.76,10.62l.4-.65a5.76,5.76,0,0,0,4,1.52c2.42,0,3.49-1.06,3.49-2.37,0-3.63-7.55-1.45-7.55-5.91C16.09,1.5,17.4,0,20.37,0A6.47,6.47,0,0,1,24,1.09l-.33.71a6,6,0,0,0-3.32-1C18,.78,17,1.87,17,3.2c0,3.62,7.55,1.48,7.55,5.87,0,1.71-1.37,3.19-4.35,3.19A6.19,6.19,0,0,1,15.76,10.62Z"/><path class="cls-1" d="M41.7,12.18V1.83l-5.06,8.74h-.44l-5.06-8.7V12.18h-.86V.09H31l5.41,9.34L41.83.09h.72l0,12.09Z"/><path class="cls-1" d="M51.86.88H47.51V.09h9.58V.88H52.74v11.3h-.88Z"/><path class="cls-1" d="M23.1,42.63C23.1,47.3,19.64,50,12.78,50H.15V22.51H12c6.12,0,9.64,2.59,9.64,7.06a6.37,6.37,0,0,1-4.19,6.24C21,36.59,23.1,38.91,23.1,42.63Zm-20-17.72v10H11.8c4.39,0,6.94-1.69,6.94-5s-2.55-5-6.94-5ZM20.19,42.4c0-3.57-2.62-5.14-7.45-5.14H3.06V47.57h9.68C17.57,47.57,20.19,46,20.19,42.4Z"/><path class="cls-1" d="M29.06,46.63,30.2,44.4a13.48,13.48,0,0,0,9.06,3.33c5.13,0,7.37-2.16,7.37-4.86,0-7.53-16.9-2.91-16.9-13.06,0-4,3.13-7.53,10.12-7.53a15.46,15.46,0,0,1,8.5,2.43l-1,2.31a14.09,14.09,0,0,0-7.52-2.27c-5,0-7.26,2.23-7.26,5,0,7.53,16.9,3,16.9,13,0,4-3.21,7.49-10.23,7.49C35.14,50.2,31.1,48.75,29.06,46.63Z"/><path class="cls-1" d="M55.1,39.65c0-6.16,4.47-10.47,10.63-10.47,3.49,0,6.43,1.37,8.08,4.08l-2.08,1.41a7,7,0,0,0-6-3.06c-4.51,0-7.8,3.22-7.8,8s3.29,8,7.8,8a7,7,0,0,0,6-3l2.08,1.41a9.09,9.09,0,0,1-8.08,4.08C59.57,50.16,55.1,45.81,55.1,39.65Z"/><path class="cls-1" d="M80.2,48a2.08,2.08,0,0,1,2.08-2.11A2.11,2.11,0,0,1,84.4,48a2.14,2.14,0,0,1-2.12,2.16A2.12,2.12,0,0,1,80.2,48Z"/><path class="cls-1" d="M89.66,36.24c0-8,6.11-14,14.39-14a13.28,13.28,0,0,1,10,4l-1.84,1.84a10.92,10.92,0,0,0-8.12-3.25,11.37,11.37,0,1,0,0,22.74,10.8,10.8,0,0,0,8.12-3.29l1.84,1.84a13.34,13.34,0,0,1-10.08,4C95.77,50.2,89.66,44.28,89.66,36.24Z"/><path class="cls-1" d="M119.46,46.63l1.14-2.23a13.48,13.48,0,0,0,9.06,3.33c5.14,0,7.37-2.16,7.37-4.86,0-7.53-16.9-2.91-16.9-13.06,0-4,3.14-7.53,10.12-7.53a15.5,15.5,0,0,1,8.51,2.43l-1,2.31a14.12,14.12,0,0,0-7.53-2.27c-5,0-7.26,2.23-7.26,5,0,7.53,16.91,3,16.91,13,0,4-3.22,7.49-10.24,7.49C125.54,50.2,121.5,48.75,119.46,46.63Z"/><path class="cls-1" d="M148.17,22.51h2.91V50h-2.91Z"/><path class="cls-1" d="M167.31,25h-9.64V22.51h22.19V25h-9.65V50h-2.9Z"/><path class="cls-1" d="M4.35,62.1H0V60.52H10.5V62.1H6.15V73.23H4.35Z"/><path class="cls-1" d="M24.74,60.52V73.23H22.93V67.56H15.64v5.67H13.82V60.52h1.82V66h7.29V60.52Z"/><path class="cls-1" d="M29.89,60.52h1.82V73.23H29.89Z"/><path class="cls-1" d="M45.35,73.23l-2.74-3.91c-.25,0-.53,0-.8,0H38.67v3.87H36.86V60.52h5c3.3,0,5.3,1.67,5.3,4.43a4,4,0,0,1-2.79,4l3,4.27ZM45.3,65c0-1.81-1.22-2.85-3.54-2.85H38.67v5.72h3.09C44.08,67.82,45.3,66.77,45.3,65Z"/><path class="cls-1" d="M51.39,60.52h5.35c4.08,0,6.86,2.58,6.86,6.36s-2.78,6.35-6.86,6.35H51.39Zm5.24,11.13c3.14,0,5.15-1.93,5.15-4.77s-2-4.78-5.15-4.78H53.2v9.55Z"/><path class="cls-1" d="M72.77,71.77l.68-1.41a6.53,6.53,0,0,0,4.19,1.47c2.19,0,3.14-.85,3.14-2,0-3.1-7.7-1.14-7.7-5.86,0-2,1.53-3.63,4.87-3.63A7.44,7.44,0,0,1,82,61.51L81.43,63a6.56,6.56,0,0,0-3.48-1c-2.16,0-3.09.91-3.09,2,0,3.1,7.69,1.16,7.69,5.82,0,1.94-1.56,3.61-4.91,3.61A7.54,7.54,0,0,1,72.77,71.77Z"/><path class="cls-1" d="M95.76,71.65v1.58H86.54V60.52h9V62.1H88.36V66h6.37v1.55H88.36v4.1Z"/><path class="cls-1" d="M111.81,73.23l0-9.26-4.58,7.71h-.84L101.78,64v9.2H100V60.52h1.49l5.29,8.93,5.23-8.93h1.49V73.23Z"/><path class="cls-1" d="M127.92,71.65v1.58H118.7V60.52h9V62.1h-7.15V66h6.37v1.55h-6.37v4.1Z"/><path class="cls-1" d="M131,71.77l.67-1.41a6.55,6.55,0,0,0,4.19,1.47c2.2,0,3.14-.85,3.14-2,0-3.1-7.69-1.14-7.69-5.86,0-2,1.52-3.63,4.86-3.63a7.42,7.42,0,0,1,4.08,1.13l-.6,1.45a6.53,6.53,0,0,0-3.48-1c-2.16,0-3.08.91-3.08,2,0,3.1,7.69,1.16,7.69,5.82,0,1.94-1.56,3.61-4.92,3.61A7.49,7.49,0,0,1,131,71.77Z"/><path class="cls-1" d="M147.15,62.1h-4.36V60.52H153.3V62.1h-4.36V73.23h-1.79Z"/><path class="cls-1" d="M165.83,71.65v1.58h-9.21V60.52h9V62.1h-7.15V66h6.37v1.55h-6.37v4.1Z"/><path class="cls-1" d="M178.6,73.23l-2.74-3.91c-.25,0-.52,0-.8,0h-3.13v3.87h-1.82V60.52h4.95c3.31,0,5.3,1.67,5.3,4.43a4,4,0,0,1-2.79,4l3,4.27Zm0-8.28c0-1.81-1.22-2.85-3.54-2.85h-3.08v5.72H175C177.33,67.82,178.55,66.77,178.55,65Z"/></g></g></svg>